<svg data-v-f03d3c87="" xmlns="http://www.w3.org/2000/svg" viewBox="0 0 16 16" class="c-icon c-icon--md" role="presentation"><!----><!----><!----><!----><!----><!----><!----><!----><!----><!----><!----><!----><!----><!----><!----><!----><!----><!----><!----><!----><!----><!----><!----><!----><!----><!----><!----><!----><!----><!----><path data-v-f03d3c87="" fill-rule="evenodd" clip-rule="evenodd" d="M7.7163 2c-1.6296 0-1.8336.0072-2.4732.036-.4978.01-.9904.104-1.4568.2784a2.9448 2.9448 0 0 0-1.0632.6924A2.9448 2.9448 0 0 0 2.0307 4.07a4.4126 4.4126 0 0 0-.2784 1.4568c-.0288.6396-.036.8436-.036 2.4732s.0072 1.8336.036 2.4732c.01.4978.104.9904.2784 1.4568a2.945 2.945 0 0 0 .6924 1.0632 2.945 2.945 0 0 0 1.0632.6924c.4664.1743.959.2685 1.4568.2784.6396.0288.84.036 2.4732.036s1.8336-.0072 2.4732-.036a4.4124 4.4124 0 0 0 1.4568-.2784 3.0688 3.0688 0 0 0 1.7556-1.7556 4.4124 4.4124 0 0 0 .2784-1.4568c.0288-.6396.036-.84.036-2.4732s-.0072-1.8336-.036-2.4732a4.4123 4.4123 0 0 0-.2784-1.4568 2.945 2.945 0 0 0-.6924-1.0632 2.945 2.945 0 0 0-1.0632-.6924 4.4126 4.4126 0 0 0-1.4568-.2784C9.5499 2.0072 9.3459 2 7.7163 2Zm0 2.9184a3.0816 3.0816 0 1 0 0 6.1632 3.0816 3.0816 0 0 0 0-6.1632Zm0 5.082A2.0004 2.0004 0 1 1 9.7167 8a2.0016 2.0016 0 0 1-2.0004 2.0004Zm3.9228-5.2032a.72.72 0 1 1-1.44 0 .72.72 0 0 1 1.44 0Z"></path><!----><!----><!----><!----><!----><!----><!----><!----><!----><!----><!----><!----><!----><!----><!----><!----><!----><!----><!----><!----><!----><!----><!----><!----><!----><!----><!----><!----><!----><!----><!----><!----></svg>